<svg xmlns="http://www.w3.org/2000/svg" viewBox="54 26 115 56" fill="#ffffff">
  <path d="M168.85 54.31v-1.86a25.91 25.91 0 0 0-24.81-24.36h-.06a25.83 25.83 0 0 0-19.36 7.7c-4.1 4.03-9.04 10.38-13.6 16.6-4.1 5.51-8.2 10.9-11.66 14.3l-.06.06a18.31 18.31 0 0 1-13.72 5.44h-.06A18.36 18.36 0 0 1 67.95 53.6c.07-5 2.12-9.61 5.7-13a18.2 18.2 0 0 1 26.22 1.15l5.7-5a26.34 26.34 0 0 0-18.39-8.79 26.04 26.04 0 0 0-18.84 7.06 25.34 25.34 0 0 0-8.08 18.4 26.05 26.05 0 0 0 24.87 26.34h.06a25.8 25.8 0 0 0 19.36-7.7c4.43-4.29 9.5-11.08 14.23-17.62 3.78-5.13 7.76-10.13 11.03-13.27l.06-.06a18.3 18.3 0 0 1 13.72-5.45h.06a18.48 18.48 0 0 1 17.57 17.17v2.31a18.26 18.26 0 0 1-18.98 17.05h-.64c-.19 0-.32 0-.45-.06h-.44a18.37 18.37 0 0 1-14.88-11.99l-7.11 2.63a26.59 26.59 0 0 0 6.35 9.74 25.56 25.56 0 0 0 15.64 7.18h1.21a25.78 25.78 0 0 0 18.79-7.05 25.66 25.66 0 0 0 8.07-17.75v-.26c.07 0 .07-.2.07-.32 0 .06 0 .06 0 0Z"/>
</svg>
